# Blender 4.5.3 LTS
# www.blender.org
mtllib cube.mtl
o Cube
v 1.000000 1.000000 -1.000000
v 1.000000 -1.000000 -1.000000
v 1.000000 1.000000 1.000000
v 1.000000 -1.000000 1.000000
v -1.000000 1.000000 -1.000000
v -1.000000 -1.000000 -1.000000
v -1.000000 1.000000 1.000000
v -1.000000 -1.000000 1.000000
vn -0.0000 1.0000 -0.0000
vn -0.0000 -0.0000 1.0000
vn -1.0000 -0.0000 -0.0000
vn -0.0000 -1.0000 -0.0000
vn 1.0000 -0.0000 -0.0000
vn -0.0000 -0.0000 -1.0000
vt 1.000000 1.000000
vt 0.000000 1.000000
vt 0.000000 0.000000
vt 1.000000 0.000000
s 0
usemtl Material.001
f 1/1/1 5/2/1 7/3/1 3/4/1
f 4/4/2 3/1/2 7/2/2 8/3/2
f 8/3/3 7/2/3 5/1/3 6/4/3
f 6/2/4 2/1/4 4/4/4 8/3/4
f 2/4/5 1/1/5 3/2/5 4/3/5
f 6/3/6 5/2/6 1/1/6 2/4/6
